<svg width="24" height="24" viewBox="0 0 24 24" fill="none" xmlns="http://www.w3.org/2000/svg">
<path fill-rule="evenodd" clip-rule="evenodd" d="M22 12C22 17.5228 17.5228 22 12 22V22.0001H3.20711C2.76165 22.0001 2.53857 21.4615 2.85355 21.1465L4.92896 19.0711C3.1193 17.2614 2 14.7614 2 12C2 6.47715 6.47715 2 12 2C17.5228 2 22 6.47715 22 12ZM7.55556 13.111C8.16921 13.111 8.66667 12.6135 8.66667 11.9999C8.66667 11.3862 8.16921 10.8888 7.55556 10.8888C6.94191 10.8888 6.44445 11.3862 6.44445 11.9999C6.44445 12.6135 6.94191 13.111 7.55556 13.111ZM13.1111 12C13.1111 12.6136 12.6136 13.1111 12 13.1111C11.3863 13.1111 10.8889 12.6136 10.8889 12C10.8889 11.3863 11.3863 10.8889 12 10.8889C12.6136 10.8889 13.1111 11.3863 13.1111 12ZM16.4444 13.1111C17.0581 13.1111 17.5556 12.6136 17.5556 12C17.5556 11.3863 17.0581 10.8889 16.4444 10.8889C15.8308 10.8889 15.3333 11.3863 15.3333 12C15.3333 12.6136 15.8308 13.1111 16.4444 13.1111Z" fill="white"/>
</svg>
