<svg width="245" height="32" viewBox="0 0 245 32" fill="none" xmlns="http://www.w3.org/2000/svg">
<g clip-path="url(#clip0)">
<path fill-rule="evenodd" clip-rule="evenodd" d="M13.7882 6.90227L13.8131 6.8677C14.0187 6.56596 13.9315 6.34594 13.7944 6.22336C13.7072 6.14792 11.6542 4.89068 11.6542 4.89068C11.5047 4.7901 11.4081 4.62037 11.4081 4.4255C11.4081 4.11747 11.5919 3.88488 12.0031 3.77173C13.324 3.40713 17.9657 3.2154 19.5452 3.2154C20.0935 3.2154 21.0343 3.21226 21.8816 3.2374L21.8442 3.20283C19.5296 1.20381 16.5265 0 13.2461 0C5.93146 0 0 5.98134 0 13.3645C0 16.6082 1.14642 19.5847 3.04984 21.898C4.7134 19.4841 8.82243 13.5311 9.72274 12.3178C10.7601 10.916 13.1246 7.8012 13.5265 7.27316L13.5452 7.24801L13.7882 6.90227Z" fill="#E30613"/>
<path fill-rule="evenodd" clip-rule="evenodd" d="M5.16774 23.9566C7.4045 25.6947 10.2051 26.7257 13.2456 26.7257C20.5603 26.7288 26.4917 20.7443 26.4917 13.3643C26.4917 11.1296 25.9497 9.02682 24.9902 7.17553C25.4481 6.73235 25.9715 6.03143 25.6257 5.15136C25.5166 4.89049 25.0026 4.29644 24.8718 4.15186L24.8905 4.20215C25.2145 5.1828 24.5758 5.79884 24.1179 6.21688C23.8656 6.44633 20.5042 9.64601 16.5603 13.1254C13.0836 16.1931 9.19266 19.3142 6.94033 21.0146C3.7721 23.4065 3.15528 23.7554 3.15528 23.7554C3.07117 23.7994 2.93098 23.8403 2.82818 23.8403C2.63503 23.8403 2.46681 23.7523 2.36089 23.614L2.35777 23.6077C2.3422 23.6486 2.33596 23.6863 2.34843 23.7114C2.68799 24.2678 3.25185 24.9089 3.57896 24.9089C3.68176 24.9089 3.82195 24.8712 3.90606 24.8241C3.90606 24.8272 4.15528 24.6889 5.16774 23.9566Z" fill="#E30613"/>
<path fill-rule="evenodd" clip-rule="evenodd" d="M13.8064 6.86751C14.012 6.56578 13.9248 6.34261 13.7877 6.22318C13.7005 6.1446 11.6475 4.8905 11.6475 4.8905C11.498 4.78992 11.4014 4.62019 11.4014 4.42532C11.4014 4.11729 11.5852 3.8847 11.9965 3.76841C13.3173 3.4038 17.9591 3.21207 19.5385 3.21207C20.2831 3.21207 21.7597 3.20579 22.7285 3.27179C23.8189 3.34409 24.6444 3.57039 24.85 4.10158C25.2519 5.14195 24.5852 5.78628 24.1117 6.22003C23.8625 6.44948 20.498 9.64917 16.5541 13.1286C13.0775 16.1963 9.18648 19.3174 6.93415 21.0178C3.76592 23.4097 3.1491 23.7586 3.1491 23.7586C3.06499 23.8026 2.9248 23.8435 2.822 23.8435C2.4949 23.8435 2.23633 23.5889 2.23633 23.2588C2.23633 23.1331 2.27371 23.0137 2.33913 22.9194C2.33913 22.9194 8.57901 13.8515 9.71296 12.3177C10.8469 10.7838 13.5728 7.19754 13.5728 7.19754C13.5728 7.19754 13.6102 7.15354 13.8064 6.86751Z" fill="white"/>
<path d="M70.5795 8.48975C68.5235 8.48975 66.7665 10.2342 66.7665 12.3086V15.5963H61.4923V8.48975H61.3147C59.2587 8.48975 57.4985 10.2342 57.4985 12.3086V25.3274H57.6761C59.7322 25.3274 61.4923 23.583 61.4923 21.5085V18.3308H66.7665V25.3274H70.7602V8.48975H70.5795Z" fill="white"/>
<path d="M47.9688 2.32275C43.3364 2.32275 40.3364 6.35222 39.919 12.2141H35.2025V2.65592H35.1713C32.8785 2.65592 31.0903 4.4915 31.0903 6.74511V25.3272H31.1215H31.1246C33.3738 25.3115 35.2056 23.4539 35.2056 21.1468V15.2221H39.919C40.2772 20.7225 43.2866 25.6855 47.9688 25.6855C53.3427 25.6855 56.1931 20.4428 56.1931 13.6285C56.1962 7.25429 53.1557 2.32275 47.9688 2.32275ZM47.9688 22.3506C45.5265 22.3506 43.9096 18.3243 43.9096 13.6034C43.9096 8.88242 45.6137 5.57587 47.9688 5.57587C50.3209 5.57587 52.1121 8.88242 52.1121 13.6034C52.1121 18.9435 50.5732 22.3506 47.9688 22.3506Z" fill="white"/>
<path d="M84.9752 8.48975C83.6668 8.48975 82.4923 8.91092 81.5578 10.4133L76.3522 19.5535V8.48975H72.3584V25.3274H74.05C75.3397 25.3274 76.511 24.9062 77.4674 23.4038L82.9659 13.9493V21.5085C82.9659 23.583 84.7229 25.3274 86.779 25.3274H86.9596V8.48975H84.9752Z" fill="white"/>
<path d="M165.265 8.48975C163.957 8.48975 162.782 8.91092 161.847 10.4133L156.639 19.5535V8.48975H152.645V25.3274H154.337C155.626 25.3274 156.798 24.9062 157.754 23.4038L163.252 13.9493V21.5085C163.252 23.583 165.009 25.3274 167.066 25.3274H167.243V8.48975H165.265Z" fill="white"/>
<path d="M101.14 17.1143C100.215 15.0084 98.8318 13.506 96.8349 12.7234L104.025 2.65283H99.5452L92.5982 12.6322V2.69998H92.5078C90.2119 2.69998 88.4829 4.38469 88.4829 6.66973V25.3304H88.5733C90.8692 25.3304 92.5982 23.6457 92.5982 21.3606V14.4395C94.6543 14.4395 96.2025 15.8225 96.9471 17.6266L99.9004 25.3272H104.424L101.14 17.1143Z" fill="white"/>
<path d="M180.119 8.48975H168.109V11.7083H172.147V25.3305H172.327C174.412 25.3305 176.081 23.6175 176.081 21.5431V11.7051H180.119V8.48975Z" fill="white"/>
<path d="M149.919 22.1403L148.548 8.48975H138.981L138.386 12.5789C137.85 16.2187 137.003 20.7919 133.772 22.7406L134.04 29.7152H134.252C135.829 29.7152 137.106 28.4265 137.106 26.8329L137.159 25.3242H148.047L148.196 29.712H148.405C149.981 29.712 151.262 28.4233 151.262 26.8298L151.402 22.7343L149.919 22.1403ZM138.754 22.2597C140.601 20.2827 141.486 16.7278 141.903 13.9902L142.171 11.5543H145.271L146.224 22.2597H138.754Z" fill="white"/>
<path d="M133.414 16.4575C133.414 11.4034 131 8.48975 126.651 8.48975C122.24 8.48975 119.558 11.8277 119.558 16.9699C119.558 22.2597 122.449 25.5694 127.305 25.5694C129.988 25.5694 131.863 24.9062 132.878 24.3687V21.0276C131.866 21.7505 130.464 22.6495 127.695 22.6495C125.193 22.6495 123.819 21.2068 123.492 18.4723L133.414 17.0893V16.4575ZM123.252 15.7346C123.252 12.7581 124.296 11.1645 126.53 11.1048H126.679C127.782 11.1048 129.841 11.4631 129.959 14.8011L123.252 15.7346Z" fill="white"/>
<path d="M110.928 8.48975C108.664 8.48975 106.785 8.88263 105.327 9.66213L105.237 9.72184V32.0033H105.446C107.502 32.0033 109.171 30.2903 109.171 28.2159V25.2991C109.738 25.4468 110.511 25.5694 111.377 25.5694C115.698 25.5694 118.53 22.0805 118.53 16.8504C118.53 11.6454 115.667 8.48975 110.928 8.48975ZM110.573 22.9826C110.006 22.9826 109.561 22.9229 109.171 22.772V11.3154C109.679 11.1362 110.184 11.0451 110.841 11.0451C113.433 11.0451 114.567 12.9404 114.567 16.9667C114.564 19.6729 113.879 22.9826 110.573 22.9826Z" fill="white"/>
<path d="M229.268 8.48975C227.212 8.48975 225.452 10.2342 225.452 12.3086V15.5963H220.178V8.48975H220C217.944 8.48975 216.184 10.2342 216.184 12.3086V25.3274H216.362C218.418 25.3274 220.178 23.583 220.178 21.5085V18.3308H225.452V25.3274H229.446V8.48975H229.268Z" fill="white"/>
<path d="M242.414 19.9464C241.529 18.1799 240.476 16.8284 238.897 16.1684L244.81 8.48975H240.507L234.785 16.0772V8.48975H230.791V25.3274H230.969C233.025 25.3274 234.785 23.583 234.785 21.5085V17.6739C236.451 17.6739 237.645 18.9249 238.302 20.3958L240.704 25.3274H245L242.414 19.9464Z" fill="white"/>
<path d="M193.458 11.139C192.473 11.139 191.43 11.3087 190.866 11.4596V6.1729H196.156C198.047 6.1729 199.582 4.62649 199.582 2.71548V2.65576H186.872V25.327H193.339C198.181 25.327 201.794 22.6899 201.794 18.1859C201.794 14.323 198.794 11.139 193.458 11.139ZM193.28 22.5516L190.866 22.5485V14.5021C191.374 14.3827 192.268 14.2098 193.04 14.2098C195.928 14.2098 197.62 15.9448 197.62 18.0947C197.62 20.408 195.994 22.5516 193.28 22.5516Z" fill="white"/>
<path d="M202.302 20.5467C202.302 23.7055 204.598 25.5694 209.006 25.5694H209.841C211.389 25.5694 213.953 25.3274 215.056 25.1168V14.4113C215.056 10.2027 212.256 8.48657 208.885 8.48657C206.321 8.48657 204.355 9.23778 203.312 9.7501V12.4249C205.069 11.4945 206.648 10.8911 208.227 10.8911C210.134 10.8911 211.446 11.4631 211.446 13.5973V14.7099C206.474 15.194 202.302 16.2155 202.302 20.5467ZM211.449 23.2812C211.062 23.3723 210.078 23.4321 209.243 23.4321C207.1 23.4321 205.847 22.5017 205.847 20.4272C205.847 17.6299 207.963 16.9101 211.449 16.5769V23.2812Z" fill="white"/>
</g>
<defs>
<clipPath id="clip0">
<rect width="245" height="32" fill="white"/>
</clipPath>
</defs>
</svg>
